<?xml version="1.0" standalone="no"?><!DOCTYPE svg PUBLIC "-//W3C//DTD SVG 1.1//EN" "http://www.w3.org/Graphics/SVG/1.1/DTD/svg11.dtd"><svg t="1515399487857" class="icon" style="" viewBox="0 0 1024 1024" version="1.1" xmlns="http://www.w3.org/2000/svg" p-id="4062" xmlns:xlink="http://www.w3.org/1999/xlink" width="32" height="32"><defs><style type="text/css"></style></defs><path d="M163.80931 0h559.46073c63.716646 6.208836 114.59059 44.823746 131.212671 96.579678 8.155396 25.389081 5.766844 57.084775 5.766845 91.286752v478.925451c-17.295545-3.536931-38.747607-3.255573-57.676426-5.292925V244.752658c0-42.650703 8.383874-96.895956-4.326131-133.621177-9.282824-26.835781-30.618152-46.041967-57.673432-54.243257-34.140118-10.348393-96.620584-3.968946-144.192062-3.968946H302.231534c-48.542263 0-104.751037-6.438313-145.631777 1.322982-32.066848 6.090107-57.071805 30.034484-66.32769 54.24226-15.065632 39.406105-5.766844 126.446544-5.766845 177.281576v455.109781c0 30.737879-3.701556 62.189131 2.88442 87.319802 7.523836 28.710504 31.055155 50.734262 60.558851 59.534187 30.059427 8.966545 71.295357 3.968946 109.585009 3.968946h337.405294c5.990335 16.559224 14.162691 38.154959 17.304524 52.920276H256.091791c-65.362891 0-116.646899 2.180027-157.16846-19.84473-36.939731-20.075203-59.544165-50.290275-70.652823-97.902659V117.746391C43.323169 50.853989 86.935678 10.1698 163.80931 0z" fill="#e6e6e6" p-id="4063"></path><path d="M443.539176 416.744302c44.557354-63.494154 89.221464-126.232033 135.538802-193.15736 10.729523-15.503632 27.273782-56.435257 53.351293-56.890219 13.19889-0.228479 26.519502 9.200012 28.83921 18.521747 5.694011 22.92171-28.04602 57.812116-37.491472 71.441026-44.637171 64.408069-92.268512 131.526954-132.65538 193.157359h86.514638c26.341908 0 65.663206-5.051476 82.190503 3.969944 16.948337 9.250896 15.66227 38.150968-1.440713 46.305366-17.466155 8.326006-58.159324 2.646962-90.839772 2.646961h-93.725189c-3.36233 21.611698-0.482898 48.949334-1.442709 72.762012h96.609609c29.482742 0 73.885449-5.282948 90.838774 3.969944 16.441493 8.973529 15.730116 38.118043-1.440713 46.30337-17.871231 8.520562-58.499548 2.644966-92.282481 2.644966h-93.724191v70.118043c0 24.220746 5.143267 51.741964-2.88442 66.152091-8.790946 15.780002-39.99576 17.472142-50.466873 1.320986-9.177065-14.152714-4.325133-45.672809-4.325133-67.473077v-70.118043h-93.724192c-31.878278 0-72.927634 5.358775-90.839772-2.644966-14.108814-6.304618-19.542419-28.891092-8.650266-41.01244 13.130047-14.612665 60.254544-9.261871 92.28248-9.261872h100.934743v-71.441025c-25.526767-2.377576-58.846756-1.321984-93.725189-1.321984-46.841144 0-110.412122 11.837995-105.258879-30.429583 5.306894-43.520718 135.328282-13.451314 180.237833-22.49169-47.309076-71.683472-99.821283-148.510211-152.840333-224.907929-8.262152-11.904842-18.865962-21.837184-17.302529-35.720513 1.42475-12.656128 20.065226-29.182428 41.814611-19.845727 16.121223 6.920213 36.228354 46.309357 46.141739 60.858168 41.81062 61.37 92.160758 131.149814 129.765971 186.544445zM988.579802 842.74848v42.33642c-16.080317 77.85639-66.721791 123.998129-151.399619 138.9151H792.480155c-73.609079-9.957285-128.407071-58.578368-145.63078-113.778443-16.815639-53.880086-3.183737-111.287126 34.603062-150.822935 99.832258-104.441742 293.13329-48.148162 307.127365 83.349858zM822.760079 803.058024c0-24.594893 9.207994-73.932342-21.629658-68.796059-21.723443 3.619742-14.418109 54.182396-14.418108 83.347863 0 29.242291-6.248745 69.333832 5.765846 80.703894 11.001902 10.409254 57.3372 5.292926 80.748792 5.292925 25.298288 0 68.198422 5.676052 67.770399-17.197767-0.576684-30.583232-90.727029-9.623047-118.237271-15.878777V803.058024z" fill="#e6e6e6" p-id="4064"></path></svg>