<?xml version="1.0" standalone="no"?><!DOCTYPE svg PUBLIC "-//W3C//DTD SVG 1.1//EN" "http://www.w3.org/Graphics/SVG/1.1/DTD/svg11.dtd"><svg t="1515399201904" class="icon" style="" viewBox="0 0 1024 1024" version="1.1" xmlns="http://www.w3.org/2000/svg" p-id="2225" xmlns:xlink="http://www.w3.org/1999/xlink" width="32" height="32"><defs><style type="text/css"></style></defs><path d="M66.402462 342.961231 0.039385 342.961231 0.039385 0l342.961231 0 0 66.363077L66.402462 66.363077 66.402462 342.961231zM0 543.074462l1024 0 0-66.363077L0 476.711385 0 543.074462zM681.038769 0l0 66.363077 276.598154 0 0 276.598154L1024 342.961231 1024 0 681.038769 0zM957.636923 957.558154l-276.598154 0 0 66.363077L1024 1023.921231 1024 680.96l-66.363077 0L957.636923 957.558154zM66.363077 680.96 0 680.96l0 342.961231 342.961231 0 0-66.363077L66.363077 957.558154 66.363077 680.96z" p-id="2226" fill="#e6e6e6"></path></svg>